<mxfile host="app.diagrams.net" agent="Mozilla/5.0 (Windows NT 10.0; Win64; x64) AppleWebKit/537.36 (KHTML, like Gecko) Chrome/136.0.0.0 Safari/537.36" version="27.0.9">
  <diagram name="Page-1" id="akLYi17unUrQbcjTLKoW">
    <mxGraphModel dx="632" dy="324" grid="1" gridSize="10" guides="1" tooltips="1" connect="1" arrows="1" fold="1" page="1" pageScale="1" pageWidth="827" pageHeight="1169" math="0" shadow="0">
      <root>
        <mxCell id="0" />
        <mxCell id="1" parent="0" />
        <mxCell id="Vd4HApBtQRcDSePpLUuG-2" value="" style="verticalLabelPosition=bottom;html=1;verticalAlign=top;align=center;strokeColor=none;fillColor=#00BEF2;shape=mxgraph.azure.health_monitoring;shadow=0;" vertex="1" parent="1">
          <mxGeometry x="295" y="180" width="110" height="86.25" as="geometry" />
        </mxCell>
        <mxCell id="Vd4HApBtQRcDSePpLUuG-1" value="PULSAR18" style="text;html=1;align=center;verticalAlign=middle;whiteSpace=wrap;rounded=0;fontStyle=1;fontSize=21;fontFamily=Tahoma;fontColor=#FFFFFF;labelBorderColor=none;" vertex="1" parent="1">
          <mxGeometry x="343" y="190" width="120" height="40" as="geometry" />
        </mxCell>
        <mxCell id="Vd4HApBtQRcDSePpLUuG-5" value="&amp;nbsp; &amp;nbsp; &amp;nbsp; &amp;nbsp; &amp;nbsp;AR18" style="text;html=1;align=center;verticalAlign=middle;whiteSpace=wrap;rounded=0;fontStyle=1;fontSize=21;fontFamily=Tahoma;fontColor=#00BEF2;labelBorderColor=none;" vertex="1" parent="1">
          <mxGeometry x="343" y="190" width="120" height="40" as="geometry" />
        </mxCell>
      </root>
    </mxGraphModel>
  </diagram>
</mxfile>
